<mxfile host="www.draw.io" modified="2019-10-26T22:28:36.159Z" agent="Mozilla/5.0 (Windows NT 10.0; Win64; x64) AppleWebKit/537.36 (KHTML, like Gecko) Chrome/78.0.3904.70 Safari/537.36" etag="hT7F4wkdT7uTxjsoPocC" version="12.1.7" type="github" pages="1">
  <diagram id="-FVZtOEpVn7iWTgYCD78" name="Page-1">
    <mxGraphModel dx="2011" dy="999" grid="1" gridSize="10" guides="1" tooltips="1" connect="1" arrows="1" fold="1" page="1" pageScale="1" pageWidth="850" pageHeight="1100" math="0" shadow="0">
      <root>
        <mxCell id="0"/>
        <mxCell id="1" parent="0"/>
        <mxCell id="HSROhBu-wgd5HoVpm1-8-31" value="" style="shape=ext;double=1;rounded=0;whiteSpace=wrap;html=1;fontSize=14;" vertex="1" parent="1">
          <mxGeometry x="170" y="840" width="670" height="570" as="geometry"/>
        </mxCell>
        <mxCell id="HSROhBu-wgd5HoVpm1-8-30" style="vsdxID=5;fillColor=none;gradientColor=none;image;aspect=fixed;image=data:image/png,iVBORw0KGgoAAAANSUhEUgAAAQEAAABFCAIAAADFMMRkAAAFvElEQVR4nO2dT0gcVxjAvzVZKpbWrX8OHizYNiJCMBfBgzYHbQ8t1HhKr/UWckpLDoGCLJTmUEhPJdeekkMOwUKlUOagXgQJxou4gk1IwQV3MzFsN9qQZHsYu53Ozp/vvXkz87433++ks9+89/y+/c2bmX3jFlqtFjD5o1wuZz2EpLAsa21tDR9/VmHfnFYqmF0p0V26VPXNaaUCV8qDGgc4rVQwuFLSKHDA4LSyAISQLlZcBwxOKwtAiDjFiuWAwWllAQgRs1jy94UWFxfjdJwctm1n3oJWfKVrpUBFqp/FbkHZfSFNMOzty6SAaQ4whNDkgGWUA5rklMGgT7HMcUCfnDKRaFUsQxzQKqdMOLoVK+56oYODA8+WUqnUGdbT0wMAU1NTkQ1ubGzMzMxEhq2vryMbXFlZAYDu7u7IyJOTk8gYutw9nuzc2DX4UefGy3/dHfki+uD46Jc3ANBa+BbTe+H+dwDgNDsCA0FhD36uA8Dv71+NbPCTJz9h+sVgyDzAMNKwA0xK6HYK1Ebl2mkH3zMK51yoVqthWtjd3cWE2baNbDBoVEzrxTPf7XvPX0fuW4QCAKw9eorp6LxtI5sNGVVCKJ4HMKfdjCYU3u7PeghaoNKBNAXQdmKlAgvQhq8H8ggL4EaZA3wWRAUWwIOaa2IWgAT87vdFwTzAApCABQgi7jzAAlDhyze/4YOLqwVk5MWHtzs3Bt2xaNxH3fT8tH4H2bsS4jrQ19eHD97f38eE+d71903r5uYmvncmHcjdsqNxX4hcWnMLxUoRcIBiWhlC6O4AC0AIosWKez0wODjo2VKpVKanpz0bd3Z2AGB8fDy8NSfMAZPQiYmJyJjt7W0AmJz0WTnsweyri9ULVzo3DveXOjd+YN0EgD9mb4Q36ISt9i0AQPXoGACC10SfXubufX4zvM3RX28AwDsL74WHAfryGoOm8wDRI0o+ORWALDo6wAIQgroAoKcDDJMm2jnAkwAhzCiWXg6YkdOcYEyxNHKg0WhkPQQGy+GLV1kPQRnqn6WUg6gAX1+7nvUQvNz68YekuzBJAEjCgfn5+aCX+vv9ly42m0332ruBgeD7zP9Sr9fB79OJIPCRQqTwhkuUkXfPiL5kH7/q7f3vpXPBLfyPOgDAuV5U8Cgi7AGqVxSKz4XGxsZEd2k2m2rHwCD5eER4NbV9bNQM4KDSARaAECxAG2UOVCoV0V1YgKxgAdwocyDkMsCX5eVlVV0zQkgIYDZqHJA4C5qbm1PSNSOEnAAGTwKgxAG+DKACC+BLodVqye0p/X1k+n++6DtCut9TL/19ZPpXCgK+j0yoWGl/TkwirQzkqVKpOpCftDKE0Gi9EKMPuTpapedArtJKmrxVKiUH8pZWuuSwUnHXzEU+Jg8AjUZjeHg4ZkdxcB6r9zyA71mZZ1lWqmPKgsjH5Ev3rkc+9p4ozjP1ALD32ffu7R+W3nL/eubONwo7lXGgXC7jg4kuiu5E6K8GgKWlpYRGgkd0zNkKoBChP1z4XEg0rflEh1lFtFKGPRWAR8wB0bQaMwkIwQIQwrIsAQdYAAyOANl+qMwCIHGKhXWABcBAUYDSPe0eB02HdrFQDrAAGCgKAAZdBwvhLla0AywABqIC5PMsyFOsiHujLIDD7OxsyKssQNLsH/3t/nU0NFi0WGEOmH0b1PnPFBhYgGx5fGiPDfQggyWKFegAMq3t702q1WrFYhGziw5Uq9WhoSFMpEkC/Pn0qP1ztfEykdHEI/wAH4lcsfyvBySOK7QEQEaaJIAbPQXw5fEhdv2SdLF85gGhtDrzAKGFVnkW4OLD206lziczHuWkIAB0zgMSxxUWIBPMrhSkJQB4HDA7rTkXgBapCQDuZ+qNT6sSWABCIIt1Og9wWjHoIACDBF+sLmABcGgiABcLg1CxujinGFgAQogW6+zW1laS4zGHzAWYv3Qp2wEQQqhY/wAen8dHoW/A1wAAAABJRU5ErkJggg==;strokeColor=none;labelBackgroundColor=none;rounded=0;html=1;whiteSpace=wrap;fontSize=14;" vertex="1" parent="1">
          <mxGeometry x="258.5" y="1293" width="359" height="94" as="geometry"/>
        </mxCell>
        <mxCell id="HSROhBu-wgd5HoVpm1-8-16" value="" style="shape=link;html=1;fontSize=14;" edge="1" parent="1">
          <mxGeometry width="50" height="50" relative="1" as="geometry">
            <mxPoint x="170" y="550" as="sourcePoint"/>
            <mxPoint x="590" y="10" as="targetPoint"/>
          </mxGeometry>
        </mxCell>
        <mxCell id="HSROhBu-wgd5HoVpm1-8-8" value="" style="rounded=0;whiteSpace=wrap;html=1;" vertex="1" parent="1">
          <mxGeometry x="240" y="4" width="260" height="246" as="geometry"/>
        </mxCell>
        <mxCell id="6LgXjvk4uBCeSPVUdTd0-1" value="External Firewall&lt;br&gt;l0: 10.66.255.255/32&lt;br&gt;E1/1: Public IP&lt;br&gt;E1/2: 10.6.99.1/30&lt;br&gt;E1/7: 10.6.99.5/30&lt;br&gt;E1/8: 10.66.0.0/23" style="vsdxID=5;fillColor=none;gradientColor=none;image;aspect=fixed;image=data:image/png,iVBORw0KGgoAAAANSUhEUgAAAHEAAABtCAIAAAAZCBlnAAABsElEQVR4nO3bPU6EUBhG4XeMexn3YTMb0J24KatZDlZmipkN2NlgQUIIf+OFA4nmnBZyIU8uBflyD3VdZ7avt+f5G6zXw/xlQUu7Xa5zpoKWdrtcP7+n96mgpTWgmfr2BS2tBc2oqaCldUEzNBW0tB5oeqaCljYETddU0NJGQdOaClraFGgaU0FLmwFNcqhejju+zD9pBjR3/01tQZryacqnKZ+mfJryacqnKZ+mfJryacqnKZ+mfJryacqnKZ+mfJryacqnKZ+mfJryPSKrHN8rZJ1uH69PWzyit+wWuU/5NOXTlE9TPk35NOXTlE9TPk35NOXTlE9TPk35PCOxJM9I7J2mfJryacqnKd/m86h9xkq/X9Z51J9MUz5N+TTl05RPUz5N+TTl05RPUz5N+TTl05TPedSSnEftnaZ8mvJpyqcpn+ej+NynfJryacqnKZ+mfJryacqnKZ+mfJryacqnKZ+zkyU5O9k7Tfk05dOUT1M+Tfk05dOUT1M+Tfk05dOUT1O407nSlOx0ruI+BWtAoylVCxpNkbqg0XR9PdBourIhaDRd0yhoNF3cFGiSH76/c4/HN6VEAAAAAElFTkSuQmCC;strokeColor=none;labelBackgroundColor=none;rounded=0;html=1;whiteSpace=wrap;" parent="1" vertex="1">
          <mxGeometry x="295" y="20" width="130" height="127" as="geometry"/>
        </mxCell>
        <mxCell id="6LgXjvk4uBCeSPVUdTd0-4" value="Management Switch" style="vsdxID=5;fillColor=none;gradientColor=none;image;aspect=fixed;image=data:image/png,iVBORw0KGgoAAAANSUhEUgAAAHEAAABuCAIAAACfnGvJAAACX0lEQVR4nO3bzU3jUBiF4TMoJUwBs0MuBokmaINGUgoFQAPIQtmwn+khs8jIY9mOUb57vkuc+75bkDCPnD8758fxeNRqjy+/13+BJt2t/xjQQGumgAZ6f307awpooPfXN507TwENdALVoimggQZQzU0BDTQG1cQU0EATUI1NAQ00B9VgCmigRVCdTLt9X/dgbqFzoJLuun1//+tnzaO5gVZAJe0kfXz+qXUwTfTF530KhKk/TP1h6g9Tf5j6w9Qfpv4w9Yepv7ZM+6euwl9py1RVWJszVT5ri6ZKZm3UVJms7ZoqjXV3JcfxXfVPnf3WUdPn6Sn7WYKp5GbF1B+mkvtuPKb+rzdc/Lq/6S9YzJ83M/6dps/TpPOjXdO8B1yjpqnPYC2aZr8kNGda4TW2LdM6b1qcpjd2eSWczRTQIY8poOMMpoBOKjUFdF6RKaCLXXwNZWgRdNPKrndawfN003bZRUwBXe9iU0C/7GLTTV+TrlPksQ/resHXKFhXir+X6vZ9nds7m6voPT+Ci5V+NoV1nuEaCqyTPNf6YB1nuyYN65Dz3sn1s7I7SYndSUrsTlJid5ISu5OU2J2kxO4kJXYnKbE7ScnIium/jM+qmEpseeyx5SmKLU96bHnMseUxx5bHHFsec2x5zLHl2Wpsefyx5fHHlscfWx5/bHn8seX5H1ue640tjz+2PP7Y8vhjy+OPLY8/tjz+Src8IM5jd+KP3Yk/dif+2tqd1Kmt+1F1wtTc4fkBU2eH5wdxnho7gQpTVwOoMLU0BhWm5U1AhWlhc1BhWtIiqDANdw5U0l8AV9F7r7mHawAAAABJRU5ErkJggg==;strokeColor=none;labelBackgroundColor=none;rounded=0;html=1;whiteSpace=wrap;" parent="1" vertex="1">
          <mxGeometry x="75.5" y="34" width="103" height="100" as="geometry"/>
        </mxCell>
        <mxCell id="6LgXjvk4uBCeSPVUdTd0-5" value="nsx.lab.engyak.net&lt;br&gt;10.66.0.204" style="vsdxID=5;fillColor=none;gradientColor=none;image;aspect=fixed;image=data:image/png,iVBORw0KGgoAAAANSUhEUgAAAHEAAABtCAIAAAAZCBlnAAADT0lEQVR4nO2cy23cMBCG6WCbyD2HqBgDacJtuJBsKSnAbsDZg333IS0E2BwICIQeIz5+zoyY/4MPa5srrT7NkEOK9sP9fg8iP379kRuQBV/kX1NoKW8vr5JTCi3l7eU1CHFKoaVEoWHPKYWWMgsNm04ptJRUaFg7pdBSFkLDwimFlrIWGlKnFFrKptAwO6XQUvaEhuiUQksRhIYQLtP1pvZRxuDv54fc4GBuSiqgUzx0iodO8dApHjrFQ6d46BQPneKhUzx0iodO8dApngv8iLenaX69t+iV0yZtlnOcvWaZ5wKCd5pye5oqLmNhKuzLna63dWP5UAp0z/3Sqzp0JDSQ36u2Uny+/nQdqum3qVb9rI/0zf1Ifg8gWBBicLMHMMn6iFKctl/hdL3Fr4pzKT8f0sv9roEjBLX+A7e+TluuRx6OsOfCojpGHTpae4lmq2PcRHR3p/lDjUyOWSehqhGnRVrlgchhhb9GKfdLI0gY5ffEbf58zHlUI/kl1B76WvWcNnZ26dvlCr/xHrSjGqeZFfthFud00PI96Ip27sta54uvLqEyVwW7YtCfFiXmoVwhfq16AF9jVI6FoqQ26QEevv/8rXOmIvau30NVf7j/VGOtrwIP7qrxlftjQKd46BQPneKhUzx0iseglrJ9WKSA0/o0Ulf5m98z7dxfaKqbLzY+pOrNuftTn2Z9PTd1ddhq7PvTzJ0/qOevCtjkfvvQ4blgMNvbg13ZdBW25x6jZlyFrcG+PlfX3wPLOK1Of58l1Iz2uF8dpPKe3tqP0wWlfdKbr9fNvNmpw74+bcHnPejuFNXx+dS3iWqcHm4SGSP9B6lPXdHXaUVZ6rlIysRFnA6Q7ykdnf5Xc6cUp/ulPMP/12cAneKhUzx0iodO8dApHjrFQ6d46BSPmVPnz5RaMN4rGV8PthpgvK9vSFz0p4OJrs99rAhlrV17GxdxOhj1cQrc/cAxqhUnfxHeD5s9E+N5TGF/iodO8ZzYqdvZ7Sn3oDmf3Z44Tt3iZR7VSOmH4TzqZNApHoO5aTvOZ7eMUzynrKVcReWC9+dHximS9+fHwNwHEoUGOkUxCw10CiEVGui0nYXQQKeNrIUGOm1hU2g4aX1qzuXrN2HV5h/0fm+x4tWVQgAAAABJRU5ErkJggg==;strokeColor=none;labelBackgroundColor=none;rounded=0;html=1;whiteSpace=wrap;" parent="1" vertex="1">
          <mxGeometry x="40" y="179" width="83" height="80" as="geometry"/>
        </mxCell>
        <mxCell id="6LgXjvk4uBCeSPVUdTd0-6" value="vcenter.lab.engyak.net" style="pointerEvents=1;shadow=0;dashed=0;html=1;strokeColor=none;fillColor=#434445;aspect=fixed;labelPosition=center;verticalLabelPosition=bottom;verticalAlign=top;align=center;outlineConnect=0;shape=mxgraph.vvd.vcenter_server;" parent="1" vertex="1">
          <mxGeometry x="160" y="179" width="77" height="80" as="geometry"/>
        </mxCell>
        <mxCell id="6LgXjvk4uBCeSPVUdTd0-7" value="bgp-rrc-s0&lt;br&gt;l0: 10.6.0.240/32&lt;br&gt;&lt;div&gt;&amp;nbsp; &amp;nbsp; FD00:6::240&lt;/div&gt;F0/22: 10.6.240.2/31&lt;br&gt;&lt;div&gt;&amp;nbsp; &amp;nbsp; FD00:6:240::5&lt;/div&gt;F0/24: 10.6.240.0/31&lt;br&gt;&lt;div&gt;&amp;nbsp; &amp;nbsp; FD00:6:240::1&lt;/div&gt;&lt;div&gt;&lt;br&gt;&lt;/div&gt;" style="vsdxID=5;fillColor=none;gradientColor=none;image;aspect=fixed;image=data:image/png,iVBORw0KGgoAAAANSUhEUgAAAHEAAABtCAIAAAAZCBlnAAACS0lEQVR4nO3bwW2rQBhF4Zun1EYhlEkDLsFbdi7DWTgiCPBEM3P/eZA5Z5vIcT5hG4Pux/P5VLLH45H+Bdr0L/1jQHOb5zllCmhu8zzf7/e3poDm9gLVu9c+oLktoDo0BTS3Naj2poDmtgHVxhTQ3PagWpsCmtshqBZTQHN7B6qXKaC5JUAlfd5ut5bP5m+UANWv302pIEz9YeoPU3+Y+sPUH6b+MPWHqT9M/fVlOk1Tg7/Sl6masHZnqnjWHk0VzNqpqSJZ+zVVGOvnSZ7H/2qapmEYvI/Z9XH6yn6UYCq5WTH9zsiK6XfGd1VMJSuoMJUbVAXnUvZn0LL9m2bEv9P1cRp0fPRrGveC69Q09B2sR9Poj4TuTBt8xjpNz395pc1Ji830/KDN8pgCus5gCuimWlNA91WZAnpY9vf9pUPQSyu7zgoKj9NL20VXYgpoumxTQH8t2/TS10/bVPLahzVd4WcUrInKz6WGYWhzK+JyVZ3zI3hY7XdTWPcZrqHAuslzrQ/WdbZr0rAuOe+dnJ+V3UlI7E5CYncSEruTkNidhMTuJCR2JyGxOwmJ3UlI7E78sTsxx+7EHLuTqtidhMfuxBy7E3PsTsyxOzF3sd3J+bvY7kR/7pJVcWx5/LHl8ceWxx9bHn9sefyx5fmJLc95Y8vjjy2PP7Y8/tjy+GPL448tj7/aLQ+I+9id+GN34o/dib++didt6ut+VJswNTeOI6bOxnEUx6mxF6gwdbWAClNLa1BhWt8GVJhWtgcVpjUdggrT4t6BSvoC0pTxzWSstvYAAAAASUVORK5CYII=;strokeColor=none;labelBackgroundColor=none;rounded=0;html=1;whiteSpace=wrap;" parent="1" vertex="1">
          <mxGeometry x="660" y="20" width="113" height="110" as="geometry"/>
        </mxCell>
        <mxCell id="6LgXjvk4uBCeSPVUdTd0-8" value="bgp-rrc-s1&lt;br&gt;l0: 10.6.0.241/32&lt;br&gt;&lt;div&gt;&amp;nbsp; &amp;nbsp; FD00:6::241&lt;/div&gt;F0/23: 10.6.241.2/31&lt;br&gt;&lt;div&gt;&amp;nbsp; &amp;nbsp; FD00:6:241::5&lt;/div&gt;F0/21: 10.6.241.0/31&lt;br&gt;&lt;div&gt;&amp;nbsp; &amp;nbsp; FD00:6:241::1&lt;/div&gt;&lt;div&gt;&lt;br&gt;&lt;/div&gt;" style="vsdxID=5;fillColor=none;gradientColor=none;image;aspect=fixed;image=data:image/png,iVBORw0KGgoAAAANSUhEUgAAAHEAAABtCAIAAAAZCBlnAAACS0lEQVR4nO3bwW2rQBhF4Zun1EYhlEkDLsFbdi7DWTgiCPBEM3P/eZA5Z5vIcT5hG4Pux/P5VLLH45H+Bdr0L/1jQHOb5zllCmhu8zzf7/e3poDm9gLVu9c+oLktoDo0BTS3Naj2poDmtgHVxhTQ3PagWpsCmtshqBZTQHN7B6qXKaC5JUAlfd5ut5bP5m+UANWv302pIEz9YeoPU3+Y+sPUH6b+MPWHqT9M/fVlOk1Tg7/Sl6masHZnqnjWHk0VzNqpqSJZ+zVVGOvnSZ7H/2qapmEYvI/Z9XH6yn6UYCq5WTH9zsiK6XfGd1VMJSuoMJUbVAXnUvZn0LL9m2bEv9P1cRp0fPRrGveC69Q09B2sR9Poj4TuTBt8xjpNz395pc1Ji830/KDN8pgCus5gCuimWlNA91WZAnpY9vf9pUPQSyu7zgoKj9NL20VXYgpoumxTQH8t2/TS10/bVPLahzVd4WcUrInKz6WGYWhzK+JyVZ3zI3hY7XdTWPcZrqHAuslzrQ/WdbZr0rAuOe+dnJ+V3UlI7E5CYncSEruTkNidhMTuJCR2JyGxOwmJ3UlI7E78sTsxx+7EHLuTqtidhMfuxBy7E3PsTsyxOzF3sd3J+bvY7kR/7pJVcWx5/LHl8ceWxx9bHn9sefyx5fmJLc95Y8vjjy2PP7Y8/tjy+GPL448tj7/aLQ+I+9id+GN34o/dib++didt6ut+VJswNTeOI6bOxnEUx6mxF6gwdbWAClNLa1BhWt8GVJhWtgcVpjUdggrT4t6BSvoC0pTxzWSstvYAAAAASUVORK5CYII=;strokeColor=none;labelBackgroundColor=none;rounded=0;html=1;whiteSpace=wrap;" parent="1" vertex="1">
          <mxGeometry x="653" y="296.5" width="120" height="117" as="geometry"/>
        </mxCell>
        <mxCell id="6LgXjvk4uBCeSPVUdTd0-9" value="bgp-rrc-l0&lt;br&gt;l0: 10.6.0.0/32&lt;br&gt;FD00:6::&lt;br&gt;&lt;div&gt;V100: 10.6.100.1/24&lt;/div&gt;&lt;div&gt;V200: 10.6.200.1/24&amp;nbsp; &amp;nbsp; &amp;nbsp;&amp;nbsp;&lt;span&gt;F1/0/1: 10.6.99.2/30&lt;/span&gt;&lt;/div&gt;&lt;div&gt;F1/0/21: 10.6.241.1/31&lt;/div&gt;&lt;div&gt;&lt;div&gt;&amp;nbsp; &amp;nbsp; FD00:6:241::2&lt;/div&gt;&lt;/div&gt;&lt;div&gt;F1/0/24: 10.6.240.1/31&lt;/div&gt;&lt;div&gt;&lt;div&gt;&amp;nbsp; &amp;nbsp; FD00:6:240::2&lt;/div&gt;&lt;/div&gt;&lt;div&gt;&lt;br&gt;&lt;/div&gt;&lt;div&gt;&lt;span&gt;&amp;nbsp;&amp;nbsp;&lt;/span&gt;&lt;/div&gt;&lt;div&gt;&lt;span&gt;&lt;br&gt;&lt;/span&gt;&lt;/div&gt;" style="vsdxID=5;fillColor=none;gradientColor=none;image;aspect=fixed;image=data:image/png,iVBORw0KGgoAAAANSUhEUgAAAHEAAABtCAIAAAAZCBlnAAACS0lEQVR4nO3bwW2rQBhF4Zun1EYhlEkDLsFbdi7DWTgiCPBEM3P/eZA5Z5vIcT5hG4Pux/P5VLLH45H+Bdr0L/1jQHOb5zllCmhu8zzf7/e3poDm9gLVu9c+oLktoDo0BTS3Naj2poDmtgHVxhTQ3PagWpsCmtshqBZTQHN7B6qXKaC5JUAlfd5ut5bP5m+UANWv302pIEz9YeoPU3+Y+sPUH6b+MPWHqT9M/fVlOk1Tg7/Sl6masHZnqnjWHk0VzNqpqSJZ+zVVGOvnSZ7H/2qapmEYvI/Z9XH6yn6UYCq5WTH9zsiK6XfGd1VMJSuoMJUbVAXnUvZn0LL9m2bEv9P1cRp0fPRrGveC69Q09B2sR9Poj4TuTBt8xjpNz395pc1Ji830/KDN8pgCus5gCuimWlNA91WZAnpY9vf9pUPQSyu7zgoKj9NL20VXYgpoumxTQH8t2/TS10/bVPLahzVd4WcUrInKz6WGYWhzK+JyVZ3zI3hY7XdTWPcZrqHAuslzrQ/WdbZr0rAuOe+dnJ+V3UlI7E5CYncSEruTkNidhMTuJCR2JyGxOwmJ3UlI7E78sTsxx+7EHLuTqtidhMfuxBy7E3PsTsyxOzF3sd3J+bvY7kR/7pJVcWx5/LHl8ceWxx9bHn9sefyx5fmJLc95Y8vjjy2PP7Y8/tjy+GPL448tj7/aLQ+I+9id+GN34o/dib++didt6ut+VJswNTeOI6bOxnEUx6mxF6gwdbWAClNLa1BhWt8GVJhWtgcVpjUdggrT4t6BSvoC0pTxzWSstvYAAAAASUVORK5CYII=;strokeColor=none;labelBackgroundColor=none;rounded=0;html=1;whiteSpace=wrap;" parent="1" vertex="1">
          <mxGeometry x="230" y="565" width="130" height="127" as="geometry"/>
        </mxCell>
        <mxCell id="6LgXjvk4uBCeSPVUdTd0-10" value="bgp-rrc-l1&lt;br&gt;l0: 10.6.0.1/32&lt;br&gt;FD00:6::1&lt;br&gt;&lt;div&gt;V100: 10.6.101.1/24&lt;/div&gt;&lt;div&gt;V201: 10.6.201.1/24&amp;nbsp; &amp;nbsp; &amp;nbsp;&amp;nbsp;&lt;span&gt;F1/0/1: 10.6.99.6/30&lt;/span&gt;&lt;/div&gt;&lt;div&gt;F0/22: 10.6.241.3/31&lt;/div&gt;&lt;div&gt;&lt;div&gt;&amp;nbsp; &amp;nbsp; FD00:6:241::6&lt;/div&gt;&lt;/div&gt;&lt;div&gt;F1/0/23: 10.6.240.3/31&lt;/div&gt;&lt;div&gt;&lt;div&gt;&amp;nbsp; &amp;nbsp; FD00:6:240::6&lt;/div&gt;&lt;/div&gt;&lt;div&gt;&lt;br&gt;&lt;/div&gt;&lt;div&gt;&lt;span&gt;&amp;nbsp;&amp;nbsp;&lt;/span&gt;&lt;/div&gt;&lt;div&gt;&lt;span&gt;&lt;br&gt;&lt;/span&gt;&lt;/div&gt;" style="vsdxID=5;fillColor=none;gradientColor=none;image;aspect=fixed;image=data:image/png,iVBORw0KGgoAAAANSUhEUgAAAHEAAABtCAIAAAAZCBlnAAACS0lEQVR4nO3bwW2rQBhF4Zun1EYhlEkDLsFbdi7DWTgiCPBEM3P/eZA5Z5vIcT5hG4Pux/P5VLLH45H+Bdr0L/1jQHOb5zllCmhu8zzf7/e3poDm9gLVu9c+oLktoDo0BTS3Naj2poDmtgHVxhTQ3PagWpsCmtshqBZTQHN7B6qXKaC5JUAlfd5ut5bP5m+UANWv302pIEz9YeoPU3+Y+sPUH6b+MPWHqT9M/fVlOk1Tg7/Sl6masHZnqnjWHk0VzNqpqSJZ+zVVGOvnSZ7H/2qapmEYvI/Z9XH6yn6UYCq5WTH9zsiK6XfGd1VMJSuoMJUbVAXnUvZn0LL9m2bEv9P1cRp0fPRrGveC69Q09B2sR9Poj4TuTBt8xjpNz395pc1Ji830/KDN8pgCus5gCuimWlNA91WZAnpY9vf9pUPQSyu7zgoKj9NL20VXYgpoumxTQH8t2/TS10/bVPLahzVd4WcUrInKz6WGYWhzK+JyVZ3zI3hY7XdTWPcZrqHAuslzrQ/WdbZr0rAuOe+dnJ+V3UlI7E5CYncSEruTkNidhMTuJCR2JyGxOwmJ3UlI7E78sTsxx+7EHLuTqtidhMfuxBy7E3PsTsyxOzF3sd3J+bvY7kR/7pJVcWx5/LHl8ceWxx9bHn9sefyx5fmJLc95Y8vjjy2PP7Y8/tjy+GPL448tj7/aLQ+I+9id+GN34o/dib++didt6ut+VJswNTeOI6bOxnEUx6mxF6gwdbWAClNLa1BhWt8GVJhWtgcVpjUdggrT4t6BSvoC0pTxzWSstvYAAAAASUVORK5CYII=;strokeColor=none;labelBackgroundColor=none;rounded=0;html=1;whiteSpace=wrap;" parent="1" vertex="1">
          <mxGeometry x="430" y="565" width="130" height="127" as="geometry"/>
        </mxCell>
        <mxCell id="HSROhBu-wgd5HoVpm1-8-1" value="" style="endArrow=classic;startArrow=classic;html=1;entryX=0;entryY=0.25;entryDx=0;entryDy=0;exitX=0.5;exitY=0;exitDx=0;exitDy=0;" edge="1" parent="1" source="6LgXjvk4uBCeSPVUdTd0-9" target="6LgXjvk4uBCeSPVUdTd0-7">
          <mxGeometry width="50" height="50" relative="1" as="geometry">
            <mxPoint x="355" y="255" as="sourcePoint"/>
            <mxPoint x="550" y="-65" as="targetPoint"/>
          </mxGeometry>
        </mxCell>
        <mxCell id="HSROhBu-wgd5HoVpm1-8-2" value="" style="endArrow=classic;startArrow=classic;html=1;entryX=0;entryY=0.75;entryDx=0;entryDy=0;exitX=0.5;exitY=0;exitDx=0;exitDy=0;" edge="1" parent="1" source="6LgXjvk4uBCeSPVUdTd0-10" target="6LgXjvk4uBCeSPVUdTd0-7">
          <mxGeometry width="50" height="50" relative="1" as="geometry">
            <mxPoint x="410" y="275" as="sourcePoint"/>
            <mxPoint x="460" y="225" as="targetPoint"/>
          </mxGeometry>
        </mxCell>
        <mxCell id="HSROhBu-wgd5HoVpm1-8-3" value="" style="endArrow=classic;startArrow=classic;html=1;entryX=0;entryY=0.25;entryDx=0;entryDy=0;exitX=0.75;exitY=0;exitDx=0;exitDy=0;" edge="1" parent="1" source="6LgXjvk4uBCeSPVUdTd0-9" target="6LgXjvk4uBCeSPVUdTd0-8">
          <mxGeometry width="50" height="50" relative="1" as="geometry">
            <mxPoint x="340" y="335" as="sourcePoint"/>
            <mxPoint x="390" y="285" as="targetPoint"/>
          </mxGeometry>
        </mxCell>
        <mxCell id="HSROhBu-wgd5HoVpm1-8-4" value="" style="endArrow=classic;startArrow=classic;html=1;entryX=0;entryY=0.5;entryDx=0;entryDy=0;exitX=0.75;exitY=0;exitDx=0;exitDy=0;" edge="1" parent="1" source="6LgXjvk4uBCeSPVUdTd0-10" target="6LgXjvk4uBCeSPVUdTd0-8">
          <mxGeometry width="50" height="50" relative="1" as="geometry">
            <mxPoint x="550" y="525" as="sourcePoint"/>
            <mxPoint x="630" y="475" as="targetPoint"/>
          </mxGeometry>
        </mxCell>
        <mxCell id="HSROhBu-wgd5HoVpm1-8-5" value="" style="endArrow=classic;startArrow=classic;html=1;entryX=0;entryY=0.75;entryDx=0;entryDy=0;exitX=0.25;exitY=0;exitDx=0;exitDy=0;" edge="1" parent="1" source="6LgXjvk4uBCeSPVUdTd0-9" target="6LgXjvk4uBCeSPVUdTd0-1">
          <mxGeometry width="50" height="50" relative="1" as="geometry">
            <mxPoint x="300" y="415" as="sourcePoint"/>
            <mxPoint x="350" y="365" as="targetPoint"/>
          </mxGeometry>
        </mxCell>
        <mxCell id="HSROhBu-wgd5HoVpm1-8-6" value="" style="endArrow=classic;startArrow=classic;html=1;exitX=1;exitY=0.75;exitDx=0;exitDy=0;entryX=0.25;entryY=0;entryDx=0;entryDy=0;" edge="1" parent="1" source="6LgXjvk4uBCeSPVUdTd0-1" target="6LgXjvk4uBCeSPVUdTd0-10">
          <mxGeometry width="50" height="50" relative="1" as="geometry">
            <mxPoint x="500" y="115" as="sourcePoint"/>
            <mxPoint x="550" y="65" as="targetPoint"/>
          </mxGeometry>
        </mxCell>
        <mxCell id="HSROhBu-wgd5HoVpm1-8-7" value="" style="shape=flexArrow;endArrow=classic;startArrow=classic;html=1;exitX=1;exitY=0.5;exitDx=0;exitDy=0;" edge="1" parent="1" source="6LgXjvk4uBCeSPVUdTd0-4" target="6LgXjvk4uBCeSPVUdTd0-1">
          <mxGeometry width="50" height="50" relative="1" as="geometry">
            <mxPoint x="300" y="-95" as="sourcePoint"/>
            <mxPoint x="350" y="-145" as="targetPoint"/>
          </mxGeometry>
        </mxCell>
        <mxCell id="HSROhBu-wgd5HoVpm1-8-9" value="BGP AS64900" style="text;html=1;strokeColor=none;fillColor=none;align=center;verticalAlign=middle;whiteSpace=wrap;rounded=0;fontSize=14;" vertex="1" parent="1">
          <mxGeometry x="385" y="4" width="110" height="20" as="geometry"/>
        </mxCell>
        <mxCell id="HSROhBu-wgd5HoVpm1-8-12" value="" style="shape=link;html=1;fontSize=14;" edge="1" parent="1">
          <mxGeometry width="50" height="50" relative="1" as="geometry">
            <mxPoint x="590" y="10" as="sourcePoint"/>
            <mxPoint x="840" y="10" as="targetPoint"/>
          </mxGeometry>
        </mxCell>
        <mxCell id="HSROhBu-wgd5HoVpm1-8-13" value="" style="shape=link;html=1;fontSize=14;" edge="1" parent="1">
          <mxGeometry width="50" height="50" relative="1" as="geometry">
            <mxPoint x="840" y="840" as="sourcePoint"/>
            <mxPoint x="840" y="10" as="targetPoint"/>
          </mxGeometry>
        </mxCell>
        <mxCell id="HSROhBu-wgd5HoVpm1-8-14" value="" style="shape=link;html=1;fontSize=14;" edge="1" parent="1">
          <mxGeometry width="50" height="50" relative="1" as="geometry">
            <mxPoint x="170" y="840" as="sourcePoint"/>
            <mxPoint x="840" y="840" as="targetPoint"/>
          </mxGeometry>
        </mxCell>
        <mxCell id="HSROhBu-wgd5HoVpm1-8-15" value="" style="shape=link;html=1;fontSize=14;" edge="1" parent="1">
          <mxGeometry width="50" height="50" relative="1" as="geometry">
            <mxPoint x="170" y="840" as="sourcePoint"/>
            <mxPoint x="170" y="550" as="targetPoint"/>
          </mxGeometry>
        </mxCell>
        <mxCell id="HSROhBu-wgd5HoVpm1-8-17" value="BGP AS64901" style="text;html=1;strokeColor=none;fillColor=none;align=center;verticalAlign=middle;whiteSpace=wrap;rounded=0;fontSize=14;" vertex="1" parent="1">
          <mxGeometry x="662" y="810" width="149" height="20" as="geometry"/>
        </mxCell>
        <mxCell id="HSROhBu-wgd5HoVpm1-8-19" value="t0r0.lab.engyak.net&lt;br&gt;fp-eth0.200: 10.6.200.2/24&lt;br&gt;T0-T1: 10.8.0.0/19" style="vsdxID=5;fillColor=none;gradientColor=none;image;aspect=fixed;image=data:image/png,iVBORw0KGgoAAAANSUhEUgAAAJoAAACTCAIAAAD5kpeIAAAJIElEQVR4nO2dO2wURxjH/1juzs3J8nF32Eg2dSgMJILajSXLUoSSJi7ixgUSRYoUoaCgoEmRAikFjRuqICRkWXIR17xiXIQaW8Lk/JJ1jV2TYs/rZW9v9pvZb543P1Gg0z7G+9tvZnael758+YIIHwvP5y3efbTwV7tpqshWFwcrG1Zubfe5bXX7dHotEsBW19qtrbsEMJL9KbpUxgWXyOqMLpVxxCVSndGlMsubS9bu3feHjyC6rMDy5tJx98TW3fv/8JHoUhm7LgsZnaiP205DNSw90CSPtfz0+v72kcLDImLslpcCok5pnHWJqFMWl10i6pTCcZeIOum47xJRJxEvXCLqpOCLSwzqIIukKLhcnXtW/Qpq71CMThHVXRb+onYdClHnQFhcin9Xu5qAmNkWo7u8JKqSzXVjdBbgVN1nde4ZPUyHOjpzXSIT9XHlOohW6EmS0KlWAKRJkTqd95kSe7KOuyeF3YU6uk3Ef2D2WUk9ipCjk6srN30VSr0uby4VvrXKb6fsiQHqvFnXNb4ilzMXHpMISKVWyWYUzg1K5826uXslasVSlVE+PRCdJkVmSaSu/9AbpW29GuW9TlsisyR5eyrVIh7rdG3YVSLV7ughX3USXYofro4X4rh7YtHopZ///snWvdUQOKj+HLkEmzG6sZNPrWfRWfi4GZ9deqmKXm3FqE86KZ99XGSvr6ZW/CWjCW+a4E26zDFRH1e+o9qroNaeiopttgrtscRTch9w9GY2fUzUx9XcbOyczM9IJ1utM8D16DzunqS5lvX5FwppSKbQ9NdZKITWfW2l+CklSQ8lUrPToXIxSu++hkxjk7vR6abLlNKE9U9tU4tRyISpozqTir6zLhMEKRw0TVHNqN/RufB83nGRWfqTKp5yKmvU7+5rfS71DRzJVnqJ04eJoxFkE+xWdC5vLulziQrfc6UkySa6JAaowsvnUJutvoax6sPSidAzUvGXKDEj6b+dQzo1MSgiNUnlMqp2L7cyW17EI1Q1Zbx0ScrfLQKcGJipI1AoqdVUOZqfGdehioL96LTlUvZIKYgxym7dsk67LtWOJ1K9aFTAfnTyYnL2HQu8AWpTJ3toVrGiw6j5ALWmk32genUfFmM0h4nua17YWwwGxTrvpBFZKLXcwv5tn7qvrY8WN4lylqu3+9rWvIthQDALP86+do7SAG0+HViTkIrRqDMonOvvDJXSOlE2U1WefR2j02n87r6OZBn22deOQ+9pUf4KiNFZgjtNRRR81WnmKfvlEiZ1ss+N1f2sDTfKV+9aOVjZMKdTx7AuqQXOZK+s47L6SDZF9DWzzcL+6D11iWBqtoK2Tdlaor8uEUZ0JrBosOhSreMlt/HsqJk/wEx3SsWReV7HZcIlM3tfU54y19NUM8pyd7Wh6wksGzyHk9mmKIjxLi4HEaBOSOoJxiVC1QnJ2eom0Tq8L1idxBLU/JAXrfMdwtQpJcmFQUws9SAEqVNBjwtGWSj+UNGx+DZvm62OWZtmZoIWZrZcq/IWRKe/m5vHoaN5nUPrkvEisnCF5lb36yb4IF3KTmoYtHmG4ySrbFxEZ5AuHbmgbtJ6SU9ndGnmsv1Uz2kn6hcjykZgyqWOhde1PnQdF2dvQ8i6BDCqb2Um3RgIIN3lKPtaNL42IxjLDPXdSEfjra86fcTA6jRRpx009atEnUERdRoim9Pq6/KMOk2jtfta4zhbY8uOuk8amrpXGtISnYVzDXxsCPUOfp3iNUeHUKpyaDq3j4ratvRqsIzec6fRIF3tXCpJzKtNi9ekZ9ngm3J3NfQ10laMS0HCAmnkK8TwNvClqLnMYW3lEhfKRTUr7uSxCUl6ljeXnFi5hGtuHu/duY4norYxYIpaqoLKbFPoz8IRl1x1/jB1gubJHZe5/ygTrE6U2XLNJQtDui2OOy2OysvvJeQ+VBh0Kr9fxp6p463HsnuuZsnpDGSpCzHZIT+6WzDszpAZCp3QHJHZ6C9tlqsSi6WEXBUyg1TfEWMltpCosxKCNdzpBzMSdVZCdm4M5cQqRJ1VoRtN22D1FeRRJwNSMaq1UhZ18qCc6/ISdZZDbB93wWjUOZDEYvbTotSKdaPe69zYOUn+8V5WR8tl/FCRIPUqpbb04KQ6yrVQkW6jYTbyCeqTuR4MYmeWrAbBxFBN+6cnhKmzH+WwkN0VPVVlxSiDTtf6m/ShsD6KYaPhlJ2aSMtOokt636qOcjTqZKbfn0mjUScD2fJy0AFSW3Mr4/1YocIvDeJ6ouZLffa5MSFPajCG8rBYQYyyhCmlZnvn/ty9WQBnaw9f/7UHAJi69vuj6Rawv/7m1xen+RNuX3+20ii40MHug98+fsods/1h6clh/l7ZI10j2+ynNjJIqrordRdKdH7unAEAalcmz3+arLUA4Oyfd30uBTSnH69ev5P7cXbmxymJa1hG9/4cuevL3o6i89O7o30AQLs9lvxy52YDAA6O3uwJzjtbe3hRy3+wnrwTje9u5w6rLd67dlUq0Y6gacJalfFEpLJz77QDAGi1awCAsck2AKBzSs8PP73YeQ8g805c0Jy+f7fvRzcRV2L7i0BBoSg2qpYN0KpCh2+3AQDtsasAULvSBID3W4eCc3JcvTtzAwDQ6WTz57O19SMArYWZfCbsLKUt8nQT7FVrYs22V3w2a5MApsbaAHD09rX4pNrio/Muw9W5xws1ADjYfZE7692/f24DaNy7f1ku6cbQ2t7La5So87z4rE1OndeDDs4+y95s+8NSUX311cvdfQCz3/ySL1YdIF2jgHJwoZtSYRZGwe+ddoAWare+HfvcbgDY3zosKzgzHzYlF//4ZL3xeKF2Y/Hafx1igowgNbw9d6JsF6nZ+Z294rPVvpzUg74uAqvSqyg1pxdnGa/KimwMWdkHjd4q1Cs+241bTRAKTlkO/3h6xHtFBkobYwWn0E9kbLal6+wVn81aC8D24SuuFKS8TupEjqGw3oQUvE3wEt3XveITAPZ77UTMvHq5+/3sdEvHpU2SFoTmJ/THHhW/Cb9HhWu3PR8JTecwuzxY2QhK55C7REjRGV0iGJ3RZUIIOofZZY7i3XUjnhJCdEZSos6giDqDIuoMiqgzKP4HyWGp03u1t/gAAAAASUVORK5CYII=;strokeColor=none;labelBackgroundColor=none;rounded=0;html=1;whiteSpace=wrap;fontSize=14;" vertex="1" parent="1">
          <mxGeometry x="249.5" y="870" width="130" height="130" as="geometry"/>
        </mxCell>
        <mxCell id="HSROhBu-wgd5HoVpm1-8-20" value="t0r1.lab.engyak.net&lt;br&gt;fp-eth0.201: 10.6.201.2/24&lt;br&gt;T0-T1: 10.32.0.0/19" style="vsdxID=5;fillColor=none;gradientColor=none;image;aspect=fixed;image=data:image/png,iVBORw0KGgoAAAANSUhEUgAAAJoAAACTCAIAAAD5kpeIAAAJIElEQVR4nO2dO2wURxjH/1juzs3J8nF32Eg2dSgMJILajSXLUoSSJi7ixgUSRYoUoaCgoEmRAikFjRuqICRkWXIR17xiXIQaW8Lk/JJ1jV2TYs/rZW9v9pvZb543P1Gg0z7G+9tvZnael758+YIIHwvP5y3efbTwV7tpqshWFwcrG1Zubfe5bXX7dHotEsBW19qtrbsEMJL9KbpUxgWXyOqMLpVxxCVSndGlMsubS9bu3feHjyC6rMDy5tJx98TW3fv/8JHoUhm7LgsZnaiP205DNSw90CSPtfz0+v72kcLDImLslpcCok5pnHWJqFMWl10i6pTCcZeIOum47xJRJxEvXCLqpOCLSwzqIIukKLhcnXtW/Qpq71CMThHVXRb+onYdClHnQFhcin9Xu5qAmNkWo7u8JKqSzXVjdBbgVN1nde4ZPUyHOjpzXSIT9XHlOohW6EmS0KlWAKRJkTqd95kSe7KOuyeF3YU6uk3Ef2D2WUk9ipCjk6srN30VSr0uby4VvrXKb6fsiQHqvFnXNb4ilzMXHpMISKVWyWYUzg1K5826uXslasVSlVE+PRCdJkVmSaSu/9AbpW29GuW9TlsisyR5eyrVIh7rdG3YVSLV7ughX3USXYofro4X4rh7YtHopZ///snWvdUQOKj+HLkEmzG6sZNPrWfRWfi4GZ9deqmKXm3FqE86KZ99XGSvr6ZW/CWjCW+a4E26zDFRH1e+o9qroNaeiopttgrtscRTch9w9GY2fUzUx9XcbOyczM9IJ1utM8D16DzunqS5lvX5FwppSKbQ9NdZKITWfW2l+CklSQ8lUrPToXIxSu++hkxjk7vR6abLlNKE9U9tU4tRyISpozqTir6zLhMEKRw0TVHNqN/RufB83nGRWfqTKp5yKmvU7+5rfS71DRzJVnqJ04eJoxFkE+xWdC5vLulziQrfc6UkySa6JAaowsvnUJutvoax6sPSidAzUvGXKDEj6b+dQzo1MSgiNUnlMqp2L7cyW17EI1Q1Zbx0ScrfLQKcGJipI1AoqdVUOZqfGdehioL96LTlUvZIKYgxym7dsk67LtWOJ1K9aFTAfnTyYnL2HQu8AWpTJ3toVrGiw6j5ALWmk32genUfFmM0h4nua17YWwwGxTrvpBFZKLXcwv5tn7qvrY8WN4lylqu3+9rWvIthQDALP86+do7SAG0+HViTkIrRqDMonOvvDJXSOlE2U1WefR2j02n87r6OZBn22deOQ+9pUf4KiNFZgjtNRRR81WnmKfvlEiZ1ss+N1f2sDTfKV+9aOVjZMKdTx7AuqQXOZK+s47L6SDZF9DWzzcL+6D11iWBqtoK2Tdlaor8uEUZ0JrBosOhSreMlt/HsqJk/wEx3SsWReV7HZcIlM3tfU54y19NUM8pyd7Wh6wksGzyHk9mmKIjxLi4HEaBOSOoJxiVC1QnJ2eom0Tq8L1idxBLU/JAXrfMdwtQpJcmFQUws9SAEqVNBjwtGWSj+UNGx+DZvm62OWZtmZoIWZrZcq/IWRKe/m5vHoaN5nUPrkvEisnCF5lb36yb4IF3KTmoYtHmG4ySrbFxEZ5AuHbmgbtJ6SU9ndGnmsv1Uz2kn6hcjykZgyqWOhde1PnQdF2dvQ8i6BDCqb2Um3RgIIN3lKPtaNL42IxjLDPXdSEfjra86fcTA6jRRpx009atEnUERdRoim9Pq6/KMOk2jtfta4zhbY8uOuk8amrpXGtISnYVzDXxsCPUOfp3iNUeHUKpyaDq3j4ratvRqsIzec6fRIF3tXCpJzKtNi9ekZ9ngm3J3NfQ10laMS0HCAmnkK8TwNvClqLnMYW3lEhfKRTUr7uSxCUl6ljeXnFi5hGtuHu/duY4norYxYIpaqoLKbFPoz8IRl1x1/jB1gubJHZe5/ygTrE6U2XLNJQtDui2OOy2OysvvJeQ+VBh0Kr9fxp6p463HsnuuZsnpDGSpCzHZIT+6WzDszpAZCp3QHJHZ6C9tlqsSi6WEXBUyg1TfEWMltpCosxKCNdzpBzMSdVZCdm4M5cQqRJ1VoRtN22D1FeRRJwNSMaq1UhZ18qCc6/ISdZZDbB93wWjUOZDEYvbTotSKdaPe69zYOUn+8V5WR8tl/FCRIPUqpbb04KQ6yrVQkW6jYTbyCeqTuR4MYmeWrAbBxFBN+6cnhKmzH+WwkN0VPVVlxSiDTtf6m/ShsD6KYaPhlJ2aSMtOokt636qOcjTqZKbfn0mjUScD2fJy0AFSW3Mr4/1YocIvDeJ6ouZLffa5MSFPajCG8rBYQYyyhCmlZnvn/ty9WQBnaw9f/7UHAJi69vuj6Rawv/7m1xen+RNuX3+20ii40MHug98+fsods/1h6clh/l7ZI10j2+ynNjJIqrordRdKdH7unAEAalcmz3+arLUA4Oyfd30uBTSnH69ev5P7cXbmxymJa1hG9/4cuevL3o6i89O7o30AQLs9lvxy52YDAA6O3uwJzjtbe3hRy3+wnrwTje9u5w6rLd67dlUq0Y6gacJalfFEpLJz77QDAGi1awCAsck2AKBzSs8PP73YeQ8g805c0Jy+f7fvRzcRV2L7i0BBoSg2qpYN0KpCh2+3AQDtsasAULvSBID3W4eCc3JcvTtzAwDQ6WTz57O19SMArYWZfCbsLKUt8nQT7FVrYs22V3w2a5MApsbaAHD09rX4pNrio/Muw9W5xws1ADjYfZE7692/f24DaNy7f1ku6cbQ2t7La5So87z4rE1OndeDDs4+y95s+8NSUX311cvdfQCz3/ySL1YdIF2jgHJwoZtSYRZGwe+ddoAWare+HfvcbgDY3zosKzgzHzYlF//4ZL3xeKF2Y/Hafx1igowgNbw9d6JsF6nZ+Z294rPVvpzUg74uAqvSqyg1pxdnGa/KimwMWdkHjd4q1Cs+241bTRAKTlkO/3h6xHtFBkobYwWn0E9kbLal6+wVn81aC8D24SuuFKS8TupEjqGw3oQUvE3wEt3XveITAPZ77UTMvHq5+/3sdEvHpU2SFoTmJ/THHhW/Cb9HhWu3PR8JTecwuzxY2QhK55C7REjRGV0iGJ3RZUIIOofZZY7i3XUjnhJCdEZSos6giDqDIuoMiqgzKP4HyWGp03u1t/gAAAAASUVORK5CYII=;strokeColor=none;labelBackgroundColor=none;rounded=0;html=1;whiteSpace=wrap;fontSize=14;" vertex="1" parent="1">
          <mxGeometry x="500.5" y="870" width="130" height="130" as="geometry"/>
        </mxCell>
        <mxCell id="HSROhBu-wgd5HoVpm1-8-21" value="t1r0.lab.engyak.net&lt;br&gt;Advertise all via BGP AS 64902" style="vsdxID=5;fillColor=none;gradientColor=none;image;aspect=fixed;image=data:image/png,iVBORw0KGgoAAAANSUhEUgAAAG4AAABvCAIAAACCZWIJAAAFaUlEQVR4nO2dPU4dMRDHDUKUEVKE9AQnCLcgh6CgDyegyQnScAL6UHCIcANKUlGCkAAJUdKQwtHi54/Z8Xg+vOz+K3i8t7Z/b2Zsj4298f7+7rrXt59/gL/+/fVdrSaANnpDuX9y8eXrqv05+nx7QQnbXYvUmBqjlCOYSpqpDUouL6ZJiKk2Sk0zhMUOVBVlPxwHMQJVQtkhxFAsQMVRdg5xUDtNWZQEjq/PD9Ermh1UC1AplKMQU2S1EkJMpimCEuDYTjAVO1MaTX6UWY4SBFMxMiXQZEYZcawleHiwcs5d3fTi+1VAOVGGHJEQPbtUME0kceW0CA/KcCJYZYlZlBiO+Pc3An26vX68PMW8kwHlwFEnIDrSF0AD+nR77ZxTQuk5qkFMNWDFRNgqoJ6jF4ZmE0qAY1ULNYWkGXL0GqW5SaxRmePhwarUmfQgjAOlHJ1zu0dn8KfoKF2uWiHEq5uH3kzSC6aZ5egF09yi1Wb/5CJ9MeJIezK7sqHG00ydHeA4KkqszHLsWUDgDmkiOZaCZjVKHY5358e8ZQEe42lW2WOWZl2s1OQY/tCuEF/UK74+P7T49aAKlMocs7+2CAjf2zt7VY/K9j9YBzfhqFz628s9/s2pj6Os0pYj/CdGVdlmapjjKCOOQiPwUVg6NFs0gjLlKFEJJCYFmi2GWdHtCE2rqwD1RjMUhDI0yR44kj9SKzzN0DCLKPvk2PhBvAi2iXJwiQl1Iw52muTudDDMPMp09MOb5mEBIWGbIc1aw2xKstHEiEBnLoRUZrZjlfgBuOhUKdslIKdAj5ensVVOLoHGqIEgLWgaOPi0hI+YC8o1tUTMtQWJOXv3oJTm9s7eaMTcPTpbrJJNHyiz05tFeGWs0nNcaIbCdD5FB+9n9XUq+o9y6XDaFVvl4tcljfp43sFZvNtwCcGkaNnBkEmTrL7CTZcEyk7yuz0UFyUxYR+PrbLDLK95Qcj+Q2m2o0DTfHVXb+Io2lShh1f56JbmiPLu/BgojlwTc3v00k5nsDe7E45uWdth1Mbej9+Y97FXuj2wmFQJSFya5St7WwdHChhaWqZ+e96dQdAaSv1cRp97hmj6QGmVE+ptJ1sq5B4Y+7Wdqv5HP6+KtzDjfCUBTbdZakurJEPpkGZmo4uaGnFY0QTGldj/cSRUXXo71f7JhfmOrVAfVumzIAoLjYyNVOMFY/Hj9jUHnxZHoQdGwuzR9c6xBSe+eAUXRPZW2NPVpNftiH5hhn36MCtXQqnQVPPNyhooOwkg0hJHqdw80eLSQWX4/7ebTjJHYGImVrYpaJWG7mZStH1maCqCvdsNKHsYl01L6SkFmTl4t2eAaYpwkmbGwedMEKmRw3FSH5/tttW04WGgLC06Cm5VnbpKEEr9ykgPPkPDhE0SOHpxDWXIe+aGmW0+fITliFXOHKirOccpRrkYZinXO3qqKvH8yhbx7sjQyV9gzvrNOLj0zGdyazvIE6jzsXISNKU5epNEcnSG6YxJrIPjOToApUKCo+fdGW8v91UcHWyVfdLsk6MjODj7oYuGO9mybaFxdKMoS4ZpQpOdY/Z1GkeHscqIZuNhPCWNYhLiGI3Gq86ojYRycHOaahzJJunwsdKQ5iQ4uqpup0STVxE4of6anaObz2n9o2W1axZ3SABiHDtTJo6fZqWXtyHEOfgnoMneBHo6A1MVk6UhTKESpsBzY172deWbjCKCpRJZOuus2O5xzL5ee+ciTfhSROMS5+2iJuaJNEaF4M58563JOOnwYAV/QzqdpMil1mSgtCtwS5ILi1kJ3lpPAEq4gbUk/eGaIEovfZe3GvOKoxwkzdR81qCHMhQXVnN8of4BReNEJs6UzUAAAAAASUVORK5CYII=;strokeColor=none;labelBackgroundColor=none;rounded=0;html=1;whiteSpace=wrap;fontSize=14;" vertex="1" parent="1">
          <mxGeometry x="256" y="1120" width="109" height="110" as="geometry"/>
        </mxCell>
        <mxCell id="HSROhBu-wgd5HoVpm1-8-22" value="t1r1.lab.engyak.net&lt;br&gt;Advertise all via BGP AS 64902" style="vsdxID=5;fillColor=none;gradientColor=none;image;aspect=fixed;image=data:image/png,iVBORw0KGgoAAAANSUhEUgAAAG4AAABvCAIAAACCZWIJAAAFaUlEQVR4nO2dPU4dMRDHDUKUEVKE9AQnCLcgh6CgDyegyQnScAL6UHCIcANKUlGCkAAJUdKQwtHi54/Z8Xg+vOz+K3i8t7Z/b2Zsj4298f7+7rrXt59/gL/+/fVdrSaANnpDuX9y8eXrqv05+nx7QQnbXYvUmBqjlCOYSpqpDUouL6ZJiKk2Sk0zhMUOVBVlPxwHMQJVQtkhxFAsQMVRdg5xUDtNWZQEjq/PD9Ermh1UC1AplKMQU2S1EkJMpimCEuDYTjAVO1MaTX6UWY4SBFMxMiXQZEYZcawleHiwcs5d3fTi+1VAOVGGHJEQPbtUME0kceW0CA/KcCJYZYlZlBiO+Pc3An26vX68PMW8kwHlwFEnIDrSF0AD+nR77ZxTQuk5qkFMNWDFRNgqoJ6jF4ZmE0qAY1ULNYWkGXL0GqW5SaxRmePhwarUmfQgjAOlHJ1zu0dn8KfoKF2uWiHEq5uH3kzSC6aZ5egF09yi1Wb/5CJ9MeJIezK7sqHG00ydHeA4KkqszHLsWUDgDmkiOZaCZjVKHY5358e8ZQEe42lW2WOWZl2s1OQY/tCuEF/UK74+P7T49aAKlMocs7+2CAjf2zt7VY/K9j9YBzfhqFz628s9/s2pj6Os0pYj/CdGVdlmapjjKCOOQiPwUVg6NFs0gjLlKFEJJCYFmi2GWdHtCE2rqwD1RjMUhDI0yR44kj9SKzzN0DCLKPvk2PhBvAi2iXJwiQl1Iw52muTudDDMPMp09MOb5mEBIWGbIc1aw2xKstHEiEBnLoRUZrZjlfgBuOhUKdslIKdAj5ensVVOLoHGqIEgLWgaOPi0hI+YC8o1tUTMtQWJOXv3oJTm9s7eaMTcPTpbrJJNHyiz05tFeGWs0nNcaIbCdD5FB+9n9XUq+o9y6XDaFVvl4tcljfp43sFZvNtwCcGkaNnBkEmTrL7CTZcEyk7yuz0UFyUxYR+PrbLDLK95Qcj+Q2m2o0DTfHVXb+Io2lShh1f56JbmiPLu/BgojlwTc3v00k5nsDe7E45uWdth1Mbej9+Y97FXuj2wmFQJSFya5St7WwdHChhaWqZ+e96dQdAaSv1cRp97hmj6QGmVE+ptJ1sq5B4Y+7Wdqv5HP6+KtzDjfCUBTbdZakurJEPpkGZmo4uaGnFY0QTGldj/cSRUXXo71f7JhfmOrVAfVumzIAoLjYyNVOMFY/Hj9jUHnxZHoQdGwuzR9c6xBSe+eAUXRPZW2NPVpNftiH5hhn36MCtXQqnQVPPNyhooOwkg0hJHqdw80eLSQWX4/7ebTjJHYGImVrYpaJWG7mZStH1maCqCvdsNKHsYl01L6SkFmTl4t2eAaYpwkmbGwedMEKmRw3FSH5/tttW04WGgLC06Cm5VnbpKEEr9ykgPPkPDhE0SOHpxDWXIe+aGmW0+fITliFXOHKirOccpRrkYZinXO3qqKvH8yhbx7sjQyV9gzvrNOLj0zGdyazvIE6jzsXISNKU5epNEcnSG6YxJrIPjOToApUKCo+fdGW8v91UcHWyVfdLsk6MjODj7oYuGO9mybaFxdKMoS4ZpQpOdY/Z1GkeHscqIZuNhPCWNYhLiGI3Gq86ojYRycHOaahzJJunwsdKQ5iQ4uqpup0STVxE4of6anaObz2n9o2W1axZ3SABiHDtTJo6fZqWXtyHEOfgnoMneBHo6A1MVk6UhTKESpsBzY172deWbjCKCpRJZOuus2O5xzL5ee+ciTfhSROMS5+2iJuaJNEaF4M58563JOOnwYAV/QzqdpMil1mSgtCtwS5ILi1kJ3lpPAEq4gbUk/eGaIEovfZe3GvOKoxwkzdR81qCHMhQXVnN8of4BReNEJs6UzUAAAAAASUVORK5CYII=;strokeColor=none;labelBackgroundColor=none;rounded=0;html=1;whiteSpace=wrap;fontSize=14;" vertex="1" parent="1">
          <mxGeometry x="511" y="1120" width="109" height="110" as="geometry"/>
        </mxCell>
        <mxCell id="HSROhBu-wgd5HoVpm1-8-25" value="BGP AS64902" style="text;html=1;strokeColor=none;fillColor=none;align=center;verticalAlign=middle;whiteSpace=wrap;rounded=0;fontSize=14;" vertex="1" parent="1">
          <mxGeometry x="630.5" y="1377" width="149" height="20" as="geometry"/>
        </mxCell>
        <mxCell id="HSROhBu-wgd5HoVpm1-8-26" style="vsdxID=5;fillColor=none;gradientColor=none;image;aspect=fixed;image=data:image/png,iVBORw0KGgoAAAANSUhEUgAAAJgAAACYCAIAAACXoLd2AAAH/UlEQVR4nO2dT2hcVRSHT5JWzEbc+DcYV4IRq5JFhUiDxVpw4ao7CUI3gZYoQcHaRVcuRKGh1GDBTUCCO1cFC1qhKBR0IWjA6rJIbNRNNlJQS1ycePMy82bmvXvP75xzn/dbTdOZ+4b55nfuufe9mRnb2dmhzjGxutHkbneWDqGfiRpj+YpsaKstmdrNTOTE6gb9+OXuP554AX24jKTmIXKfvwBeZBXnUv2KrJfXg65LxqdRdyIb+ati4ZJxZdSRyNYKGTuRjBOdLkROnL6Q9Hhrl+RAp7HIVIWMA5GMoU4zkTIKA25ckpFOA5HCChlPIhllnaoiIQoDnlw++9tpvnH9na91jjiucxhCWySK6XgxBItENHfuiM5BlUTCLTpm7twRBZ3w0qqt0LrAVuPYA7TMYhP5fw5iP9BoohJpqdAulEPiWAURTUgijYPopusZBCKX8ol0UU4tQtkwjlUEoymcSBcWySCUERZJNJqSIr1YzAopl2Ii3VlUDGVcHAMiLgXmSHcKq6hMlokimcT5MjWRri2qIGIxnSSRGVgEF1hBi4kFNl5kBhZzI8Vl5ByZl8VTL32GGPa7b28jho2bLGMSOX30zNSNWxEP7BizhycRw8blUu98pBWgODLfPPAhYtgIl61FTh89wzfyCCV4+XHq0TdBI7d12U5ksJgLuBc6AAoltXSZVFqdhxJaVPeOgn+vNKGFyNo4OnepA6jroTahbCoyv6KqEkcFGrpsJHK4RY+hVD8fiQtlQ7q5/DCZt2y7ntE7Ow2L6ubMQ42eFB7Dogra62GG7/iMSGR2U6MthgVWrLQ6mSk70+P0M7zADhPZNo5OXNoCDeUQl51qdjocx5EMFBk3O1qG0vrDAgGTmbI7iXSyVcboL0XkRZqE0ltR1X9X1Yssq450lDdgIaVVOZTe4mhCjUiROJalCOmGMvtmx3kccV1PD717rbKzI3oD1rlFBrcBW919PQA6hjmrL39e+/ely8eVn8ns4UnoZjqzT6R4szp14xYulLVxHOSv/w76RqHg50jFDZeRFqPvnIjCVZP75kjE8nHzxIL4mIGw7k6xohDNPyfvB428dmydb2ATCbUYSMwWOpqXbp6Hjs/sicxxN6fJa7R0+bjtdPjq4+/hBj95dTcqe6VVXKROHAd9d98gecrd7KWb56Ei6b/qihJpaLGJklqdCJe42THAIrPf2YlDp9jqzI7Mrsgc41iLn9WhQlFleJrMOJH9dbWVxf47y7avOhYD8iIN4+gHzaLKjFOeCw/nKMeRxBOZVxxxSw7EsEM4eXVBUqS5Rf1XsPY56MeRsm52ajF3aWKRBEWax9EDhm+jriWSTF9NqziSlMgSR7Ku6h1MJFm8plY9TmBsZ2cncR3pNo6al3srbI4PZ7zsBqRj3ipTeml1G0dSfH1tiyqTJNKzRTU8xJHyuq416of8Uk9ojNzG8xBHSklkiSO5iSN1dfmhg/mSo8qBO489HfGwradc/NS3AtP3/D3ov/xYpOhEPvjDhuzzyJGZg5vWT2GPUlqT+PgnL6vweJEllET07qHXrZ/CLkmJLC7JTYEtpbUjjG9+9ErK40soyUcoSyJlMO96BESWUJKDrqckUgzbUMqILKEk61CKJbK4JNOup5TWjiApsoSS7EJZEimPSdczTkSJewJVSijJoutZO7Yun8jikixCWUorBP1QQkSWUJJ617MrUnCaLAR0Ciz261lKKEm3wJY5Eota17MnUry6llCSYihLIuFAQ6n0NZ8llKQVSo3Pfly49w2hkb4QGkebmYObKz/fDT3EvkQiFiFyFjMGZHFr8Uq4jS2tb8+vQcfPgrMbFxWOktPH6j5Yf7HnL8vbK+YXy4zkvrveUjhKzY9lTy1+IjK0ThxvP/KPwlGiObtxESSyWlepA8sPncIVjU4cadDP16eHUnN2dBtKXKfaE0cCJVL505OTv3ic6ZVLRb3IxHVIWXIQsqj2x5EQiTRZcngLpf7MPVBkdmcoXXU9ynEk8UQa7gD4qecmb6lhIrMLpZMCq7bkqCKZyLIhR8glBw2uqzRSZAllK6BFdYhFEkyknzgadj0mRZWp39npYeRGjx+LjMleD25blUbFkRomMrsCaxJKQ4skUlq9xZEsliLoCwBG0lRkCaUVTeJIDefIQP9k6TCOAbWZUvMsxyCyPx85BJ2liJPotxPZU2A9x5FReJVte5xAu9LKcIH1b5GBFli1KzlG0uXSykBD6cQixSWS6i5o8wwolApXqzYnUiTl43J5e+Wr51Hfo3/i+sOyA8ZZpJTS+tpCHhfw4ywS0R9/vS84WrRFSpwj/btc3l6Bji/4LkmxSOnNjnOX0DgysqGMRqBrdesSHUdG5L2SGEdKaXZ6cNj7zD7zu9qxUrqedIskuI70lktNiymIWCTZDQE/LnWKapVP536NeJSURRIsrQEPNdYkjvPX1ptv9AgqZOS36MxzqR9HpnnXI26REIkMWEXTcHZsEkqERYKKJAuX5j3OkPYVpJDBimQ0dZqLpAEuoRZJ5zSW2qzpwSL17fVsLV5BWyS185EKLq16nH6qXY+CQkajtFbBlVkncWTmr61H/bR3PNoiGXGd0JOObXnuye/1D2ojkhHU6SSOJgoZS5FMuk4PFg0VMvYimRSdtiLNFTJeRDIROg0tOlHI+BLJNNdp0uO48hfwKDIw0qhmHH36C7gWWaVfqo5F5/4C2YgMBKMgkbmY6+Ff5n5SMD2UCdcAAAAASUVORK5CYII=;strokeColor=none;labelBackgroundColor=none;rounded=0;html=1;whiteSpace=wrap;fontSize=14;" vertex="1" parent="1">
          <mxGeometry x="395" y="1132" width="86" height="86" as="geometry"/>
        </mxCell>
      </root>
    </mxGraphModel>
  </diagram>
</mxfile>
